<?xml version="1.0" encoding="UTF-8" standalone="no"?>
<svg
   xmlns:dc="http://purl.org/dc/elements/1.1/"
   xmlns:cc="http://creativecommons.org/ns#"
   xmlns:rdf="http://www.w3.org/1999/02/22-rdf-syntax-ns#"
   xmlns:svg="http://www.w3.org/2000/svg"
   xmlns="http://www.w3.org/2000/svg"
   xmlns:sodipodi="http://sodipodi.sourceforge.net/DTD/sodipodi-0.dtd"
   xmlns:inkscape="http://www.inkscape.org/namespaces/inkscape"
   id="svg-source"
   height="10"
   version="1.1"
   inkscape:version="0.48.4 r9939"
   width="12"
   sodipodi:docname="share1.svg">
  <metadata
     id="metadata10">
    <rdf:RDF>
      <cc:Work
         rdf:about="">
        <dc:format>image/svg+xml</dc:format>
        <dc:type
           rdf:resource="http://purl.org/dc/dcmitype/StillImage" />
      </cc:Work>
    </rdf:RDF>
  </metadata>
  <defs
     id="defs8" />
  <sodipodi:namedview
     pagecolor="#ffffff"
     bordercolor="#666666"
     borderopacity="1"
     objecttolerance="10"
     gridtolerance="10"
     guidetolerance="10"
     inkscape:pageopacity="0"
     inkscape:pageshadow="2"
     inkscape:window-width="1366"
     inkscape:window-height="706"
     id="namedview6"
     showgrid="false"
     fit-margin-top="0"
     fit-margin-left="0"
     fit-margin-right="0"
     fit-margin-bottom="0"
     inkscape:zoom="2.5371828"
     inkscape:cx="23.038108"
     inkscape:cy="-40.478009"
     inkscape:window-x="0"
     inkscape:window-y="31"
     inkscape:window-maximized="1"
     inkscape:current-layer="svg-source" />
  <g
     id="share"
     data-iconmelon="Dripicons:14fcddebb0ace5eb3e9cc5116749a726"
     transform="matrix(0.37499637,0,0,0.4062997,5.8067081e-6,-1.5007192)"
     style="fill:#444444;fill-opacity:1">
    <path
       d="M 1.435,28.306 C 1.314,28.306 1.191,28.291 1.069,28.259 0.441,28.093 0.002,27.526 0,26.876 -0.001,26.604 0.031,20.166 4.896,15.281 8.101,12.064 12.591,10.312 18.258,10.062 V 5.129 c 0,-0.581 0.35,-1.104 0.886,-1.326 0.536,-0.222 1.154,-0.1 1.564,0.311 L 31.58,14.985 c 0.484,0.484 0.559,1.243 0.178,1.812 -0.057,0.085 -0.122,0.163 -0.193,0.232 -0.435,0.435 -10.856,10.856 -10.856,10.856 -0.411,0.411 -1.029,0.533 -1.564,0.311 -0.537,-0.222 -0.886,-0.746 -0.886,-1.326 v -4.995 c -0.36,-0.014 -0.786,-0.025 -1.262,-0.025 -4.124,0 -11.466,0.745 -14.315,5.732 -0.261,0.456 -0.741,0.724 -1.247,0.724 z m 15.562,-9.325 c 1.691,0 2.807,0.12 2.853,0.125 0.728,0.08 1.279,0.695 1.279,1.427 v 2.874 L 28.535,16 21.129,8.594 v 2.874 c 0,0.792 -0.643,1.435 -1.436,1.435 -10.482,0 -14.434,5.338 -15.923,9.419 4.107,-2.826 9.701,-3.341 13.227,-3.341 z"
       id="path4"
       inkscape:connector-curvature="0"
       style="fill:#444444;fill-opacity:1" />
  </g>
</svg>
