<?xml version="1.0" encoding="UTF-8" standalone="no"?>
<svg
   xmlns:dc="http://purl.org/dc/elements/1.1/"
   xmlns:cc="http://creativecommons.org/ns#"
   xmlns:rdf="http://www.w3.org/1999/02/22-rdf-syntax-ns#"
   xmlns:svg="http://www.w3.org/2000/svg"
   xmlns="http://www.w3.org/2000/svg"
   xmlns:sodipodi="http://sodipodi.sourceforge.net/DTD/sodipodi-0.dtd"
   xmlns:inkscape="http://www.inkscape.org/namespaces/inkscape"
   id="svg-source"
   height="12"
   version="1.1"
   inkscape:version="0.48.4 r9939"
   width="14"
   sodipodi:docname="share2.svg">
  <metadata
     id="metadata2999">
    <rdf:RDF>
      <cc:Work
         rdf:about="">
        <dc:format>image/svg+xml</dc:format>
        <dc:type
           rdf:resource="http://purl.org/dc/dcmitype/StillImage" />
      </cc:Work>
    </rdf:RDF>
  </metadata>
  <defs
     id="defs2997" />
  <sodipodi:namedview
     pagecolor="#ffffff"
     bordercolor="#666666"
     borderopacity="1"
     objecttolerance="10"
     gridtolerance="10"
     guidetolerance="10"
     inkscape:pageopacity="0"
     inkscape:pageshadow="2"
     inkscape:window-width="1155"
     inkscape:window-height="705"
     id="namedview2995"
     showgrid="false"
     fit-margin-top="0"
     fit-margin-left="0"
     fit-margin-right="0"
     fit-margin-bottom="0"
     inkscape:zoom="2.5371828"
     inkscape:cx="34.978254"
     inkscape:cy="5.4346344"
     inkscape:window-x="0"
     inkscape:window-y="32"
     inkscape:window-maximized="0"
     inkscape:current-layer="svg-source" />
  <g
     id="share-2"
     data-iconmelon="Dripicons:63ada4e79c84ab2b4fa85e04214dc68e"
     transform="matrix(0.4375,0,0,0.44907683,0,-1.1848957)"
     style="fill:#444444;fill-opacity:1">
    <g
       id="g2989"
       style="fill:#444444;fill-opacity:1">
      <path
         d="m 23.992,24.544 c -0.662,0 -1.199,0.537 -1.199,1.199 v 1.219 H 2.398 v -14.59 h 3.236 c 0.662,0 1.199,-0.537 1.199,-1.199 0,-0.663 -0.537,-1.199 -1.199,-1.199 H 1.199 C 0.537,9.973 0,10.51 0,11.172 v 16.989 c 0,0.662 0.537,1.199 1.199,1.199 h 22.793 c 0.662,0 1.199,-0.537 1.199,-1.199 v -2.418 c 0,-0.662 -0.537,-1.199 -1.199,-1.199 z"
         id="path2991"
         inkscape:connector-curvature="0"
         style="fill:#444444;fill-opacity:1" />
      <path
         d="M 31.648,11.783 22.855,2.99 C 22.512,2.647 21.998,2.544 21.548,2.73 21.1,2.916 20.808,3.353 20.808,3.838 V 7.792 C 16.231,8 12.603,9.421 10.011,12.023 6.065,15.984 6.039,21.208 6.04,21.428 c 0.002,0.543 0.369,1.017 0.894,1.155 0.102,0.027 0.204,0.04 0.306,0.04 0.422,0 0.824,-0.225 1.041,-0.604 2.295,-4.017 8.219,-4.617 11.546,-4.617 0.368,0 0.699,0.007 0.982,0.019 v 4.003 c 0,0.485 0.292,0.922 0.74,1.108 0.449,0.186 0.964,0.083 1.307,-0.26 l 8.793,-8.793 C 31.873,13.254 32,12.949 32,12.631 32,12.313 31.873,12.008 31.648,11.783 z m -8.441,6.746 v -2.232 c 0,-0.611 -0.461,-1.125 -1.068,-1.192 -0.038,-0.004 -0.942,-0.102 -2.312,-0.102 -2.823,0 -7.283,0.408 -10.601,2.628 0.479,-1.268 1.248,-2.674 2.485,-3.916 2.348,-2.357 5.812,-3.552 10.297,-3.552 0.662,0 1.199,-0.537 1.199,-1.199 V 6.733 l 5.897,5.898 -5.897,5.898 z"
         id="path2993"
         inkscape:connector-curvature="0"
         style="fill:#444444;fill-opacity:1" />
    </g>
  </g>
</svg>
