<?xml version="1.0" encoding="UTF-8" standalone="no"?>
<!-- Created with Inkscape (http://www.inkscape.org/) -->

<svg
   xmlns:dc="http://purl.org/dc/elements/1.1/"
   xmlns:cc="http://creativecommons.org/ns#"
   xmlns:rdf="http://www.w3.org/1999/02/22-rdf-syntax-ns#"
   xmlns:svg="http://www.w3.org/2000/svg"
   xmlns="http://www.w3.org/2000/svg"
   version="1.1"
   width="25"
   height="16.078342"
   id="svg-source">
  <metadata
     id="metadata16">
    <rdf:RDF>
      <cc:Work
         rdf:about="">
        <dc:format>image/svg+xml</dc:format>
        <dc:type
           rdf:resource="http://purl.org/dc/dcmitype/StillImage" />
        <dc:title></dc:title>
      </cc:Work>
    </rdf:RDF>
  </metadata>
  <defs
     id="defs14" />
  <g
     transform="translate(-299.76434,-82.268745)"
     id="dropdown">
    <path
       d="m 31.576,8.301 c -0.565,-0.565 -1.482,-0.565 -2.046,0 L 17.024,20.808 c -0.565,0.565 -1.483,0.564 -2.047,0.001 L 2.47,8.301 c -0.565,-0.565 -1.481,-0.565 -2.046,0 -0.565,0.565 -0.565,1.48 0,2.047 l 12.507,12.507 c 0.846,0.846 1.957,1.27 3.069,1.27 1.112,0 2.224,-0.424 3.07,-1.27 L 31.576,10.348 c 0.565,-0.567 0.565,-1.482 0,-2.047 z"
       id="path4" />
  </g>
  <g
     transform="matrix(0.8327296,0,0,0.8327296,-0.83314596,-6.4057724)"
     id="arrow-bottom"
     style="fill:#444444;fill-opacity:1">
    <path
       d="M 30.744,11.319 27.396,7.97 C 27.027,7.6 26.427,7.6 26.056,7.97 L 16.012,18.017 5.965,7.971 c -0.369,-0.37 -0.969,-0.37 -1.338,0 L 1.278,11.32 c -0.37,0.37 -0.37,0.97 0,1.34 l 14.064,14.063 c 0.369,0.37 0.969,0.37 1.34,0 L 30.744,12.66 c 0.371,-0.371 0.371,-0.971 0,-1.341 z"
       id="path7"
       style="fill:#444444;fill-opacity:1" />
  </g>
  <g
     transform="translate(-213.92547,2.4553286)"
     id="arrow-top">
    <path
       d="M 30.745,21.034 20.031,10.322 c 0,0 0,-10e-4 -10e-4,-0.002 L 16.68,6.971 c -0.369,-0.37 -0.969,-0.37 -1.34,0 L 1.278,21.034 c -0.371,0.371 -0.371,0.971 0,1.34 l 3.348,3.349 c 0.369,0.37 0.969,0.37 1.34,0 L 16.012,15.678 26.058,25.723 c 0.369,0.37 0.97,0.37 1.339,0 l 3.349,-3.349 c 0.368,-0.37 0.368,-0.97 -10e-4,-1.34 z"
       id="path10" />
  </g>
</svg>
