<?xml version="1.0" encoding="UTF-8" standalone="no"?>
<!-- Created with Inkscape (http://www.inkscape.org/) -->

<svg
   xmlns:dc="http://purl.org/dc/elements/1.1/"
   xmlns:cc="http://creativecommons.org/ns#"
   xmlns:rdf="http://www.w3.org/1999/02/22-rdf-syntax-ns#"
   xmlns:svg="http://www.w3.org/2000/svg"
   xmlns="http://www.w3.org/2000/svg"
   xmlns:sodipodi="http://sodipodi.sourceforge.net/DTD/sodipodi-0.dtd"
   xmlns:inkscape="http://www.inkscape.org/namespaces/inkscape"
   version="1.1"
   width="30"
   height="27.0163"
   id="svg3000"
   inkscape:version="0.48.4 r9939"
   sodipodi:docname="menu.svg">
  <sodipodi:namedview
     pagecolor="#ffffff"
     bordercolor="#666666"
     borderopacity="1"
     objecttolerance="10"
     gridtolerance="10"
     guidetolerance="10"
     inkscape:pageopacity="0"
     inkscape:pageshadow="2"
     inkscape:window-width="1366"
     inkscape:window-height="706"
     id="namedview9"
     showgrid="false"
     fit-margin-top="0"
     fit-margin-left="0"
     fit-margin-right="0"
     fit-margin-bottom="0"
     inkscape:zoom="7.9635104"
     inkscape:cx="3.8822288"
     inkscape:cy="4.6461923"
     inkscape:window-x="0"
     inkscape:window-y="31"
     inkscape:window-maximized="1"
     inkscape:current-layer="svg3000" />
  <metadata
     id="metadata3012">
    <rdf:RDF>
      <cc:Work
         rdf:about="">
        <dc:format>image/svg+xml</dc:format>
        <dc:type
           rdf:resource="http://purl.org/dc/dcmitype/StillImage" />
        <dc:title />
      </cc:Work>
    </rdf:RDF>
  </metadata>
  <defs
     id="defs3010" />
  <g
     transform="translate(-48.493384,-56.315844)"
     id="list">
    <path
       d="M 6,10 H 26 C 27.104,10 28,9.104 28,8 28,6.896 27.104,6 26,6 H 6 C 4.896,6 4,6.896 4,8 c 0,1.104 0.896,2 2,2 z m 20,4 H 6 c -1.104,0 -2,0.896 -2,2 0,1.104 0.896,2 2,2 h 20 c 1.104,0 2,-0.896 2,-2 0,-1.104 -0.896,-2 -2,-2 z m 0,8 H 6 c -1.104,0 -2,0.896 -2,2 0,1.104 0.896,2 2,2 h 20 c 1.104,0 2,-0.896 2,-2 0,-1.104 -0.896,-2 -2,-2 z"
       id="path3003"
       inkscape:connector-curvature="0" />
  </g>
  <g
     id="menu-2"
     style="fill:#444444;fill-opacity:1"
     transform="scale(0.9375,0.91162961)">
    <path
       d="m 0,24 32,0 0,5.635172 -32,0 z m 0,-12 32,0 0,5.635172 -32,0 z m 0,-12 32,0 0,5.6351723 -32,0 z"
       id="path3006"
       style="fill:#444444;fill-opacity:1"
       inkscape:connector-curvature="0" />
  </g>
</svg>
